<?xml version="1.0" encoding="UTF-8"?>
<svg id="svg" xmlns="http://www.w3.org/2000/svg" version="1.1" viewBox="0 0 400 400">
  <defs>
    <style>
      .cls-1 {
        fill: #dfdfde;
        fill-rule: evenodd;
        stroke-width: 0px;
      }
    </style>
  </defs>
  <g id="svgg">
    <path id="path0" class="cls-1" d="M103.3,11.6c-.7,1.1-32.5,63.4-44.1,86.3l-7.7,15.3,3,3.5c4.5,5.3,47.4,47.6,61.1,60.3,9.9,9.2,11.9,11.3,11,12-1.7,1.2-47.6,17.7-72.7,26-12.9,4.3-11.2,2.4-17.6,19.1-3,7.7-7.5,19.5-10.1,26.2-2.6,6.6-6.9,18-9.5,25.3s-6.4,17.4-8.4,22.6c-4.6,11.7-7.2,19.3-6.8,19.7.8.8,19.8-26.7,44.3-64.1,9-13.7,16.4-25,16.5-25.1.2-.3,44.6-15.6,67.5-23.4,18.5-6.2,22.5-7.2,22.5-5.7s-12.8,13.6-28.4,29.3c-23.8,24-28.3,28.9-28.3,30.5.5,9.1,48,120,49.2,114.8.2-.7-1-7.2-2.6-14.5-1.6-7.3-4.4-21-6.2-30.5-1.8-9.5-4.9-25-6.8-34.3-1.9-9.3-3.9-19.1-4.3-21.7-.4-2.6-1-5.3-1.2-5.9-.2-.8,1.1-2.8,3.8-5.8,9.1-10,41.8-43.9,42.4-43.9s7.2,6.3,15.2,14.1c8,7.7,15,14.1,15.6,14.1s7.5-6.6,15.5-14.6l14.4-14.6,14.3,14.4c7.9,7.9,18.4,19,23.4,24.6l9.1,10.3-1.4,6c-1.7,7.2-8,38.5-12.7,62.4-1.9,9.5-4.5,22.3-5.8,28.4-2.7,12-2.8,12.7-1.8,12.1,2.2-1.4,29-60.1,37.2-81.7,1.8-4.8,4.8-12.6,6.6-17.3,1.8-4.8,4-10.7,4.9-13.2l1.6-4.5-29.5-29.5c-16.2-16.2-29.3-29.7-29-29.9.8-.8,37.6,11.3,84.2,27.7l6.1,2.2,23.8,35.8c25.4,38.2,36.7,54.3,37.1,53,.3-.8-.6-3.2-10.4-28.6-3-7.9-7.9-20.8-10.8-28.5-8.4-22.4-19.2-49.4-20.1-50.4-.9-.9-16.7-6.5-45.7-16.3-24.7-8.4-38.7-13.7-38.5-14.6.1-.5,4.8-5.2,10.4-10.5,5.6-5.3,16.2-15.4,23.5-22.4,7.3-7,19.8-19.4,27.7-27.6l14.3-14.9-4.6-9.2c-6.4-12.7-22.3-43.8-31.6-61.6-4.3-8.1-9.4-18.2-11.5-22.4-3.9-7.8-6.5-11.5-5.6-7.9.3,1,1.6,8.1,3,15.9,1.4,7.7,4.3,23,6.5,34,5.1,25.8,9,47.2,9,49,0,2.6-94.5,94-103.2,99.7-1.8,1.2-3,.7-1.9-.9.4-.6,4.8-7,9.9-14.2,5.1-7.3,13.8-19.8,19.4-27.9l10.2-14.7-4.2-4.8c-6.2-7.1-27.1-29.7-36.1-39.1l-7.9-8.2-7.6,7.9c-22.9,23.6-40.4,42.7-40.4,44s7.5,12,25.9,38.2c7.2,10.3,13.1,19,13.1,19.3,0,3.9-25.4-19.5-85.5-78.7l-20.1-19.8,3.7-20c2-11,5.3-28.4,7.3-38.8,2-10.3,4.1-21.6,4.7-24.9.6-3.4,1.6-8.6,2.1-11.5,1-5.3,1-6.8-.2-5"/>
  </g>
</svg>